# xmcd
#
# Track frame offsets: 
#        150
#        15142
#        31411
#        45718
#        62116
#        68356
#        81095
#        96178
#        112192
#        130847
#        150199
#        158837
#        175578
#        191117
#        207547
#
# Disc length: 3382 seconds
#
# Revision: 0
# Processed by: cddbd v1.5.2PL0 Copyright (c) Steve Scherf et al.
# Submitted via: ExactAudioCopy v0.99pb3
#
DISCID=ba0d340f
DTITLE=Leslie - L'Amour En Vol
DYEAR=2006
DGENRE=R&B
TTITLE0=Je Le Ferai Pour Toi
TTITLE1=L'Envers De La Terre
TTITLE2=Capitales Riches
TTITLE3=Accorde-Moi (feat. Bobby Valentino)
TTITLE4=Un Pas Vers L'Amour
TTITLE5=S'Echapper
TTITLE6=Sobri2 (feat. Amine)
TTITLE7=L'Amour En Vol
TTITLE8=Echanger Nos Vies
TTITLE9=Cherish
TTITLE10=Maman
TTITLE11=Vers Le Paradis
TTITLE12=Si Le Temps
TTITLE13=Je Veux Etre
TTITLE14=Ce Qu'Il Y A Entre Nous
EXTD=
EXTT0=
EXTT1=
EXTT2=
EXTT3=
EXTT4=
EXTT5=
EXTT6=
EXTT7=
EXTT8=
EXTT9=
EXTT10=
EXTT11=
EXTT12=
EXTT13=
EXTT14=
PLAYORDER=
